<mxfile host="app.diagrams.net" modified="2024-01-16T02:52:05.603Z" agent="Mozilla/5.0 (Windows NT 10.0; Win64; x64) AppleWebKit/537.36 (KHTML, like Gecko) Chrome/120.0.0.0 Safari/537.36" version="22.1.18" etag="VTC_8EJia2zc-nGQ7-_P" type="github">
  <diagram name="Page-1" id="ID70bm0qsesMgDVlOw-y">
    <mxGraphModel>
      <root>
        <mxCell id="0" />
        <mxCell id="1" parent="0" />
      </root>
    </mxGraphModel>
  </diagram>
</mxfile>
